# xmcd
#
# Track frame offsets: 
#        150
#        14454
#        36351
#        52114
#        66509
#        86874
#        103164
#        121697
#        134923
#        148797
#        169259
#        189871
#        211316
#
# Disc length: 3087 seconds
#
# Revision: 0
# Processed by: cddbd v1.5.2PL0 Copyright (c) Steve Scherf et al.
# Submitted via: ExactAudioCopy v1.0b1
#
DISCID=cb0c0d0d
DTITLE=Various Artist - Tuan Khanh and Friends - Vol.2 - Nhip Song Soi 
DTITLE=Dong
DYEAR=2005
DGENRE=Pop
TTITLE0=Nha Ca - Nhip Song Soi Dong (Tuan Khanh)
TTITLE1=Trio 666 - Oh Mon Amour (Nhac Phap, Loi Viet: Tuan Khanh)
TTITLE2=MTV - Yeu Em (Le Huu Ha)
TTITLE3=Nha Ca - Ky Niem Kho Phai (Tuan Khanh)
TTITLE4=Tuan Khanh - Dem Mua (Y Nguyen)
TTITLE5=Trio 666 - Toc Roi (Tuan Khanh)
TTITLE6=MTV, Trio 666, Tuan Khanh - Con Lai Tinh Yeu (Tuan Khanh)
TTITLE7=Trio 666 - Ngay Ay (Tuan Khanh)
TTITLE8=MTV, Trio 666 - Noi Vong Tay Lon (Trinh Cong Son)
TTITLE9=Nha Ca - Phep La (Tuan Khanh)
TTITLE10=MTV - Can Phong Trong (Tuan Khanh Remix)
TTITLE11=Tuan Khanh - Giot Dan Thach Sanh (Tuan Khanh)
TTITLE12=Tuan Khanh - Phep La (Tuan Khanh)
EXTD=
EXTT0=
EXTT1=
EXTT2=
EXTT3=
EXTT4=
EXTT5=
EXTT6=
EXTT7=
EXTT8=
EXTT9=
EXTT10=
EXTT11=
EXTT12=
PLAYORDER=
